<svg width="13" height="13" viewBox="0 0 13 13" fill="none" xmlns="http://www.w3.org/2000/svg">
<g clip-path="url(#clip0)">
<path d="M12.6701 4.40482C12.2886 3.62228 11.6332 3.18413 10.9992 2.7599C10.5267 2.44335 10.0811 2.14445 9.76549 1.71651L9.70701 1.6376C9.52135 1.38789 9.30971 1.10477 9.27722 0.867126C9.24473 0.6267 9.05536 0.459609 8.78615 0.467035C8.54294 0.483744 8.3545 0.68611 8.3545 0.930249V9.20127C7.96555 8.96549 7.48655 8.82068 6.96207 8.82068C5.68289 8.82068 4.64136 9.65335 4.64136 10.6772C4.64136 11.7011 5.68289 12.5338 6.96207 12.5338C8.24218 12.5338 9.28279 11.7011 9.28279 10.6772V5.2672C9.97993 5.53362 11.1208 6.21219 11.4346 7.79678C11.3761 7.88311 11.3204 7.97686 11.2554 8.0502C11.0855 8.24235 11.105 8.53569 11.2972 8.70464C11.4884 8.87545 11.7817 8.85502 11.9516 8.66287C12.5327 8.00286 12.9328 6.95761 12.995 5.93557C13.0256 5.43151 12.9133 4.90238 12.6701 4.40482Z" fill="#FAFBFF"/>
<path d="M0.464143 1.39459H6.03386C6.29006 1.39459 6.498 1.18666 6.498 0.930451C6.498 0.674245 6.29006 0.466309 6.03386 0.466309H0.464143C0.207936 0.466309 0 0.674245 0 0.930451C0 1.18666 0.207936 1.39459 0.464143 1.39459Z" fill="#FAFBFF"/>
<path d="M0.464143 4.17926H6.03386C6.29006 4.17926 6.498 3.97133 6.498 3.71512C6.498 3.45891 6.29006 3.25098 6.03386 3.25098H0.464143C0.207936 3.25098 0 3.45891 0 3.71512C0 3.97133 0.207936 4.17926 0.464143 4.17926Z" fill="#FAFBFF"/>
<path d="M3.249 6.03564H0.464143C0.207936 6.03564 0 6.24358 0 6.49978C0 6.75599 0.207936 6.96392 0.464143 6.96392H3.249C3.50521 6.96392 3.71315 6.75599 3.71315 6.49978C3.71315 6.24358 3.50521 6.03564 3.249 6.03564Z" fill="#FAFBFF"/>
<path d="M3.249 8.8208H0.464143C0.207936 8.8208 0 9.02874 0 9.28494C0 9.54115 0.207936 9.74909 0.464143 9.74909H3.249C3.50521 9.74909 3.71315 9.54115 3.71315 9.28494C3.71315 9.02874 3.50521 8.8208 3.249 8.8208Z" fill="#FAFBFF"/>
</g>
<defs>
<clipPath id="clip0">
<rect width="13" height="13" fill="white"/>
</clipPath>
</defs>
</svg>
