<svg width="19" height="19" viewBox="0 0 19 19" fill="none" xmlns="http://www.w3.org/2000/svg">
<path d="M13.7527 13.9258C13.5736 14.2004 13.6511 14.5683 13.9258 14.7474C14.2004 14.9266 14.5683 14.849 14.7475 14.5743C15.6992 13.1147 16.2521 11.3711 16.2521 9.50007C16.2521 7.62904 15.6992 5.88537 14.7475 4.42577C14.5683 4.15109 14.2004 4.0736 13.9258 4.2527C13.6511 4.43181 13.5736 4.79967 13.7527 5.07436C14.5824 6.3469 15.0646 7.86626 15.0646 9.50007C15.0646 11.1338 14.5824 12.6532 13.7527 13.9258Z" fill="#FAFBFF"/>
<path d="M4.89936 4.2527C5.17405 4.4318 5.25154 4.79967 5.07243 5.07436C4.24273 6.3469 3.7605 7.86626 3.7605 9.50007C3.7605 11.1338 4.24272 12.6532 5.07243 13.9258C5.25154 14.2004 5.17405 14.5683 4.89936 14.7474C4.62467 14.9266 4.2568 14.849 4.0777 14.5743C3.12602 13.1147 2.573 11.3711 2.573 9.50007C2.573 7.62904 3.12602 5.88537 4.0777 4.42577C4.2568 4.15109 4.62467 4.0736 4.89936 4.2527Z" fill="#FAFBFF"/>
<path d="M6.62885 6.64274C6.89521 6.834 6.95611 7.20498 6.76485 7.47135C6.36864 8.02312 6.1355 8.69905 6.1355 9.43119C6.1355 10.1633 6.36864 10.8392 6.76485 11.391C6.95611 11.6574 6.89521 12.0284 6.62885 12.2197C6.36248 12.4109 5.9915 12.35 5.80024 12.0837C5.26392 11.3367 4.948 10.42 4.948 9.43119C4.948 8.44247 5.26392 7.5257 5.80024 6.77874C5.9915 6.51238 6.36248 6.45148 6.62885 6.64274Z" fill="#FAFBFF"/>
<path d="M9.50008 7.32275C8.2977 7.32275 7.323 8.29746 7.323 9.49985C7.323 10.7022 8.2977 11.6769 9.50008 11.6769C10.7025 11.6769 11.6772 10.7022 11.6772 9.49985C11.6772 8.29746 10.7025 7.32275 9.50008 7.32275Z" fill="#FAFBFF"/>
<path d="M12.1845 11.391C11.9932 11.6574 12.0541 12.0284 12.3205 12.2197C12.5868 12.4109 12.9578 12.35 13.1491 12.0837C13.6854 11.3367 14.0014 10.42 14.0014 9.43117C14.0014 8.44246 13.6854 7.5257 13.1491 6.77875C12.9578 6.51237 12.5868 6.45149 12.3205 6.64275C12.0541 6.834 11.9932 7.20498 12.1845 7.47135C12.5806 8.02319 12.8139 8.69904 12.8139 9.43117C12.8139 10.1633 12.5806 10.8392 12.1845 11.391Z" fill="#FAFBFF"/>
</svg>
